PathFileType	4	(X/Y/Z)	/Users/itak/Documents/Research/Walk-IL/dataset/trc/00294_00010.trc
DataRate	CameraRate	NumFrames	NumMarkers	Units	OrigDataRate	OrigDataStartFrame	OrigNumFrames
100.000000	100.000000	4	56	mm	100.000000	516	688
Frame#	Time	RPSI			LPSI			L3			STRN			T10			C7			CLAV			RBAK			LBAK			LSHO			LUPA			LAEL			LAOL			LWTS			LWPS			LFRA			LHTS			RSHO			RUPA			RAEL			RAOL			RWTS			RWPS			RFRA			RIFD			RBHD			LFHD			RFHD			LBHD			RHIP			RASI			LASI			LKNE			LTHI			LANK			LTIP			LTOE			LMT1			LMT5			LHEE			RKNE			RTHI			RANK			RTIP			RTOE			RMT1			RMT5			RHEE			LHPS			RHTS			RHPS			LIFD			LHIP			*53			*54			*55			
		X1	Y1	Z1	X2	Y2	Z2	X3	Y3	Z3	X4	Y4	Z4	X5	Y5	Z5	X6	Y6	Z6	X7	Y7	Z7	X8	Y8	Z8	X9	Y9	Z9	X10	Y10	Z10	X11	Y11	Z11	X12	Y12	Z12	X13	Y13	Z13	X14	Y14	Z14	X15	Y15	Z15	X16	Y16	Z16	X17	Y17	Z17	X18	Y18	Z18	X19	Y19	Z19	X20	Y20	Z20	X21	Y21	Z21	X22	Y22	Z22	X23	Y23	Z23	X24	Y24	Z24	X25	Y25	Z25	X26	Y26	Z26	X27	Y27	Z27	X28	Y28	Z28	X29	Y29	Z29	X30	Y30	Z30	X31	Y31	Z31	X32	Y32	Z32	X33	Y33	Z33	X34	Y34	Z34	X35	Y35	Z35	X36	Y36	Z36	X37	Y37	Z37	X38	Y38	Z38	X39	Y39	Z39	X40	Y40	Z40	X41	Y41	Z41	X42	Y42	Z42	X43	Y43	Z43	X44	Y44	Z44	X45	Y45	Z45	X46	Y46	Z46	X47	Y47	Z47	X48	Y48	Z48	X49	Y49	Z49	X50	Y50	Z50	X51	Y51	Z51	X52	Y52	Z52	X53	Y53	Z53	X54	Y54	Z54	X55	Y55	Z55	X56	Y56	Z56	

517	5.16	478.9024353027344	960.6607055664062	315.7811584472656	631.638671875	977.3914184570312	397.6265563964844	558.9599609375	1038.965698242188	375.7767333984375	425.6295166015625	1207.397583007812	591.5194091796875	572.3450927734375	1154.19677734375	369.3247680664062	559.7921142578125	1397.480102539062	428.8450317382812	462.9273986816406	1309.638061523438	545.059814453125	528.8411865234375	1262.24853515625	336.8228759765625	652.1793212890625	1358.1650390625	475.7882385253906	640.1072998046875	1364.327880859375	577.47607421875	719.26806640625	1251.345458984375	603.0731201171875	735.6231689453125	1060.679077148438	642.9386596679688	718.9859008789062	1022.191772460938	565.9542236328125	644.3466796875	921.9663696289062	793.3703002929688	709.6574096679688	893.1727905273438	792.9828491210938	733.7365112304688	980.0484008789062	699.5157470703125	642.2918090820312	856.873291015625	873.5072631835938	395.8242492675781	1378.250366210938	383.1150817871094	350.9148559570312	1332.810302734375	326.9998474121094	339.0990905761719	1091.2158203125	215.3544769287109	412.83935546875	1066.647338867188	268.8094482421875	275.1985778808594	850.8179321289062	239.9816436767578	282.5025329589844	870.418212890625	156.0825500488281	312.5242004394531	1026.482666015625	196.7600250244141	263.4541320800781	674.922607421875	181.9580993652344	505.776611328125	1557.95849609375	424.1339416503906	458.4339904785156	1578.68115234375	631.7777099609375	395.323974609375	1579.274658203125	559.9619750976562	602.2657470703125	1546.166748046875	535.1182250976562	345.7236938476562	901.35546875	359.100341796875	358.2134399414062	913.793701171875	496.0047607421875	587.2186889648438	925.9205932617188	604.0443115234375	689.847412109375	472.7129516601562	454.6689453125	693.966064453125	612.5811767578125	487.6120300292969	756.5803833007812	57.0820426940918	272.92333984375	734.423095703125	261.0154113769531	364.1978759765625	623.3927612304688	31.38681411743164	439.8709716796875	612.7753295898438	27.71183204650879	357.5049743652344	720.6718139648438	38.85616683959961	388.2191772460938	721.5272827148438	61.68659591674805	207.1416320800781	315.3858337402344	469.5647888183594	554.4159545898438	305.6705932617188	711.7410888671875	446.6186218261719	285.322265625	49.86024475097656	720.16015625	298.9979858398438	367.6958618164062	615.6572875976562	246.0603179931641	142.6795043945312	890.6363525390625	301.2677917480469	106.6634979248047	869.1431274414062	216.7003631591797	88.03469085693359	792.3795166015625	348.11328125	24.02229881286621	705.0469970703125	692.99658203125	824.858154296875	845.6099243164062	234.5109710693359	744.001220703125	199.2429962158203	258.0215454101562	763.3890380859375	135.5148010253906	620.1396484375	775.2366943359375	903.9319458007812	692.16552734375	933.7476806640625	501.0263366699219	nan	nan	nan	nan	nan	nan	nan	nan	nan	
518	5.17	473.9073791503906	958.6932373046875	323.5325927734375	626.9205932617188	975.5289306640625	404.9760437011719	554.5535888671875	1036.714477539062	383.4876708984375	420.6624145507812	1205.483032226562	598.3956909179688	568.10400390625	1151.821533203125	377.2529907226562	555.1787109375	1395.395263671875	435.6000061035156	457.6872863769531	1307.83447265625	551.7838745117188	524.9826049804688	1259.533325195312	344.2771606445312	647.3810424804688	1356.461303710938	483.23974609375	634.6842041015625	1362.77392578125	584.8726196289062	713.3554077148438	1249.614135742188	611.130859375	728.8255615234375	1058.965942382812	651.0565185546875	713.170654296875	1020.503540039062	573.8621826171875	634.5792236328125	920.5078735351562	799.7965087890625	700.1326293945312	892.176513671875	801.2310791015625	725.879638671875	978.6450805664062	707.744873046875	631.144287109375	856.0184936523438	880.5443115234375	391.4808654785156	1375.5703125	388.871826171875	347.2804260253906	1329.82177734375	332.5517272949219	338.7652587890625	1088.463623046875	220.8808135986328	411.657470703125	1064.061401367188	275.7034912109375	276.9526062011719	847.1224975585938	241.7291107177734	285.3669738769531	868.1185913085938	158.2537078857422	312.9989318847656	1023.823974609375	201.2750244140625	270.29052734375	671.6026000976562	181.0274658203125	500.862548828125	1555.598022460938	429.3610534667969	453.0033569335938	1578.005249023438	636.7281494140625	390.1017456054688	1578.101928710938	564.7279663085938	597.0900268554688	1544.56640625	540.6900634765625	341.0405883789062	899.1243286132812	367.4161682128906	354.1025390625	911.374755859375	504.337890625	583.398681640625	924.0136108398438	611.80859375	687.3195190429688	471.6183166503906	460.0508728027344	690.8806762695312	611.3157958984375	493.7492980957031	756.481201171875	58.19456481933594	273.4849548339844	733.0889282226562	261.0647277832031	367.2908630371094	623.3565063476562	31.35500717163086	439.9047241210938	612.75048828125	28.00184440612793	357.5977172851562	720.4982299804688	38.93095779418945	388.4834594726562	721.5823364257812	63.45011520385742	207.5618896484375	311.0970153808594	467.2077026367188	560.9423828125	301.7442016601562	709.5301513671875	454.6803283691406	279.1745300292969	48.40997695922852	726.6622314453125	294.10693359375	365.5225219726562	621.5628051757812	236.4676971435547	141.3527526855469	896.1723022460938	292.0455627441406	105.4224090576172	875.898193359375	209.0352783203125	86.49716949462891	797.4036254882812	342.4374084472656	22.73323249816895	712.94921875	682.4458618164062	823.9262084960938	853.7301635742188	239.3702087402344	739.96728515625	198.8149566650391	263.3710327148438	760.7401123046875	135.7523956298828	608.3302001953125	774.4598999023438	910.6651000976562	687.8738403320312	931.9661865234375	508.1805114746094	nan	nan	nan	nan	nan	nan	nan	nan	nan	
519	5.18	468.7098999023438	956.738037109375	331.3319091796875	622.0191650390625	973.588623046875	412.3652648925781	549.9926147460938	1034.426391601562	391.239501953125	415.5557861328125	1203.588256835938	605.3446655273438	563.6463623046875	1149.4501953125	385.2550354003906	550.3758544921875	1393.328491210938	442.3165588378906	452.3203430175781	1306.01904296875	558.5551147460938	520.9025268554688	1256.834594726562	351.7547302246094	642.419677734375	1354.787841796875	490.6182250976562	629.1299438476562	1361.235595703125	592.2191162109375	707.3143310546875	1247.886108398438	619.0548095703125	721.9576416015625	1057.218383789062	658.9717407226562	707.2578125	1018.843322753906	581.562744140625	624.8402709960938	918.6851196289062	805.7744750976562	690.6441650390625	890.887939453125	809.007568359375	717.99267578125	977.0987548828125	715.6656494140625	620.1275634765625	854.71826171875	887.046630859375	386.9237060546875	1372.866088867188	394.6908874511719	343.3936157226562	1326.7197265625	338.2157287597656	338.1136779785156	1085.497436523438	226.8120422363281	410.2042846679688	1061.341430664062	282.9325866699219	278.6263732910156	843.3168334960938	244.0757598876953	288.0760498046875	865.711669921875	161.0293731689453	313.1993408203125	1021.024658203125	206.2079620361328	277.1859741210938	668.2953491210938	180.7096099853516	495.7977600097656	1553.2421875	434.5331420898438	447.4761047363281	1577.393798828125	641.6162719726562	384.7645874023438	1576.988037109375	569.4541625976562	591.792724609375	1542.975341796875	546.1759643554688	336.1508178710938	896.9754638671875	375.8742065429688	349.8729553222656	909.0028076171875	512.8255004882812	579.4999389648438	922.1615600585938	619.7155151367188	684.6160888671875	470.5275268554688	465.7485961914062	687.5771484375	610.0518188476562	500.1646118164062	756.4142456054688	59.49686050415039	274.146728515625	731.671142578125	261.2005920410156	370.5947570800781	623.3094482421875	31.32139778137207	439.9493408203125	612.7294311523438	28.35451316833496	357.7070007324219	720.3372192382812	39.03751373291016	388.8127136230469	721.6741943359375	65.46746826171875	208.0910186767578	306.4887084960938	465.0836486816406	567.7691650390625	297.6575927734375	707.6473999023438	463.1829223632812	274.3661804199219	46.39931869506836	731.1763916015625	289.2319946289062	363.1165771484375	627.4703369140625	227.8424072265625	137.8871002197266	900.1737060546875	283.9444274902344	102.3971786499023	881.0204467773438	202.6530151367188	83.46271514892578	800.6983642578125	338.216552734375	21.34762191772461	718.782958984375	672.00146484375	822.6171264648438	861.2572631835938	244.302001953125	735.8394165039062	199.0110778808594	268.6678466796875	758.0467529296875	136.6202850341797	596.7070922851562	773.1749267578125	916.7460327148438	683.4212646484375	930.1536865234375	515.3831176757812	nan	nan	nan	nan	nan	nan	nan	nan	nan	
520	5.19	463.3463439941406	954.8912353515625	339.1995239257812	616.949462890625	971.638671875	419.8660583496094	545.285888671875	1032.144409179688	399.0684814453125	410.2946166992188	1201.764892578125	612.3638305664062	558.9838256835938	1147.116577148438	393.3265075683594	545.3925170898438	1391.317626953125	448.9878540039062	446.8214111328125	1304.231689453125	565.3711547851562	516.6171875	1254.181274414062	359.2447204589844	637.3070678710938	1353.178344726562	497.9200134277344	623.45166015625	1359.753295898438	599.51318359375	701.1564331054688	1246.201538085938	626.8511352539062	715.0284423828125	1055.473388671875	666.688720703125	701.2522583007812	1017.2490234375	589.0582885742188	615.1937255859375	916.57568359375	811.377197265625	681.2246704101562	889.3177490234375	816.3150634765625	710.0911865234375	975.4353637695312	723.2802734375	609.2843627929688	852.9766845703125	893.0167236328125	382.1664428710938	1370.17822265625	400.5607299804688	339.2651977539062	1323.549560546875	343.9818725585938	337.144775390625	1082.365600585938	233.1211547851562	408.4812316894531	1058.541259765625	290.4663696289062	280.2223205566406	839.4385375976562	247.0448913574219	290.5928649902344	863.2205200195312	164.4313659667969	313.1137390136719	1018.123901367188	211.5597076416016	284.0072021484375	665.0662841796875	181.0487823486328	490.5861511230469	1550.942260742188	439.6557006835938	441.8426818847656	1576.874633789062	646.44384765625	379.3082580566406	1575.964477539062	574.141357421875	586.3648071289062	1541.436279296875	551.5849609375	331.0634765625	894.9949340820312	384.4286193847656	345.476318359375	906.7448120117188	521.4232177734375	575.431396484375	920.3706665039062	627.7918090820312	681.7356567382812	469.4623718261719	471.749267578125	684.0503540039062	608.8099975585938	506.8474731445312	756.4012451171875	61.03295135498047	274.9183044433594	730.1632080078125	261.4420166015625	374.1138000488281	623.249267578125	31.2860107421875	440.0050354003906	612.7177734375	28.77304649353027	357.8363342285156	720.2044677734375	39.18947601318359	389.2148742675781	721.8267822265625	67.771728515625	208.7631072998047	301.6337280273438	463.1871643066406	574.830810546875	293.3799438476562	706.1270751953125	472.0128479003906	270.8455505371094	44.10021591186523	734.020751953125	284.42724609375	360.5682678222656	633.3790283203125	219.9462738037109	132.4223327636719	902.9256591796875	276.7856140136719	97.76055145263672	884.8396606445312	197.460205078125	79.15992736816406	802.539306640625	335.3987731933594	20.14089012145996	722.9382934570312	661.6971435546875	820.9318237304688	868.191162109375	249.2679901123047	731.667236328125	199.8964080810547	273.8463134765625	755.34765625	138.1641082763672	585.3074340820312	771.384521484375	922.1708984375	678.7832641601562	928.3344116210938	522.7122192382812	nan	nan	nan	nan	nan	nan	nan	nan	nan	
